<svg xmlns="http://www.w3.org/2000/svg" xmlns:xlink="http://www.w3.org/1999/xlink" preserveAspectRatio="xMidYMid" width="16" height="15" viewBox="0 0 16 15">
  <defs>
    <style>

      .cls-2 {
        fill: #666666;
      }
    </style>
  </defs>
  <path d="M-0.000,15.000 C-0.000,15.000 -0.000,12.000 -0.000,12.000 C-0.000,12.000 16.000,12.000 16.000,12.000 C16.000,12.000 16.000,15.000 16.000,15.000 C16.000,15.000 -0.000,15.000 -0.000,15.000 ZM-0.000,6.000 C-0.000,6.000 16.000,6.000 16.000,6.000 C16.000,6.000 16.000,9.000 16.000,9.000 C16.000,9.000 -0.000,9.000 -0.000,9.000 C-0.000,9.000 -0.000,6.000 -0.000,6.000 ZM-0.000,-0.000 C-0.000,-0.000 16.000,-0.000 16.000,-0.000 C16.000,-0.000 16.000,3.000 16.000,3.000 C16.000,3.000 -0.000,3.000 -0.000,3.000 C-0.000,3.000 -0.000,-0.000 -0.000,-0.000 Z" id="path-1" class="cls-2" fill-rule="evenodd"/>
</svg>
