<svg xmlns="http://www.w3.org/2000/svg" xmlns:xlink="http://www.w3.org/1999/xlink" preserveAspectRatio="xMidYMid" width="20" height="20" viewBox="0 0 20 20">
  <defs>
    <style>

      .cls-2 {
        fill: #6b998a;
      }
    </style>
  </defs>
  <path d="M20.010,18.189 C20.010,18.189 18.190,20.009 18.190,20.009 C18.190,20.009 10.000,11.820 10.000,11.820 C10.000,11.820 1.811,20.010 1.811,20.010 C1.811,20.010 -0.009,18.190 -0.009,18.190 C-0.009,18.190 8.181,10.000 8.181,10.000 C8.181,10.000 -0.009,1.810 -0.009,1.810 C-0.009,1.810 1.811,-0.010 1.811,-0.010 C1.811,-0.010 10.000,8.180 10.000,8.180 C10.000,8.180 18.190,-0.009 18.190,-0.009 C18.190,-0.009 20.010,1.811 20.010,1.811 C20.010,1.811 11.820,10.000 11.820,10.000 C11.820,10.000 20.010,18.189 20.010,18.189 Z" id="path-1" class="cls-2" fill-rule="evenodd"/>
</svg>
