<svg xmlns="http://www.w3.org/2000/svg" xmlns:xlink="http://www.w3.org/1999/xlink" preserveAspectRatio="xMidYMid" width="50" height="50" viewBox="0 0 50 50">
  <defs>
    <style>

      .cls-2 {
        fill: #e2e2e2;
      }
    </style>
  </defs>
  <path d="M25.000,49.993 C11.197,49.993 0.007,38.803 0.007,25.000 C0.007,11.197 11.197,0.007 25.000,0.007 C38.803,0.007 49.993,11.197 49.993,25.000 C49.993,38.803 38.803,49.993 25.000,49.993 ZM25.000,2.766 C12.720,2.766 2.766,12.720 2.766,25.000 C2.766,37.280 12.720,47.234 25.000,47.234 C37.280,47.234 47.234,37.280 47.234,25.000 C47.234,12.720 37.280,2.766 25.000,2.766 ZM11.987,34.010 C11.987,34.010 11.987,19.013 11.987,19.013 C11.987,19.013 25.000,30.021 25.000,30.021 C25.000,30.021 38.013,19.013 38.013,19.013 C38.013,19.013 38.013,34.010 38.013,34.010 C38.013,34.010 11.987,34.010 11.987,34.010 ZM11.987,16.005 C11.987,16.005 11.987,19.013 11.987,19.013 C11.987,19.013 11.987,19.013 11.987,19.013 C11.987,19.013 11.987,16.005 11.987,16.005 ZM38.013,16.005 C38.013,16.005 38.013,19.013 38.013,19.013 C38.013,19.013 38.013,19.013 38.013,19.013 C38.013,19.013 38.013,16.005 38.013,16.005 ZM11.996,15.996 C11.996,15.996 38.004,15.996 38.004,15.996 C38.004,15.996 25.000,27.019 25.000,27.019 C25.000,27.019 11.996,15.996 11.996,15.996 Z" id="path-1" class="cls-2" fill-rule="evenodd"/>
</svg>
