<svg xmlns="http://www.w3.org/2000/svg" xmlns:xlink="http://www.w3.org/1999/xlink" preserveAspectRatio="xMidYMid" width="30" height="30" viewBox="0 0 30 30">
  <defs>
    <style>

      .cls-2 {
        fill: #dde4e6;
        filter: url(#inner-shadow-1);
      }
    </style>

    <filter id="inner-shadow-1" filterUnits="userSpaceOnUse">
      <feOffset in="SourceAlpha" dx="0" dy="1"/>
      <feGaussianBlur result="innerShadowBlur" stdDeviation="1"/>
      <feFlood flood-color="#000000" flood-opacity="0.3"/>
      <feComposite operator="out" in2="innerShadowBlur"/>
      <feComposite operator="in" in2="SourceAlpha"/>
      <feBlend mode="normal" in2="SourceGraphic" result="innerShadow"/>
    </filter>
  </defs>
  <path d="M28.000,14.000 C28.000,14.000 17.000,14.000 17.000,14.000 C17.000,14.000 17.000,7.000 17.000,7.000 C17.000,7.000 19.517,7.000 19.517,7.000 C20.004,6.813 20.525,6.559 21.056,6.226 C22.828,5.115 23.969,3.662 23.605,2.978 C23.242,2.295 21.511,2.640 19.740,3.751 C18.008,4.836 16.888,6.245 17.179,6.946 C16.469,5.499 17.987,3.022 20.613,1.376 C23.267,-0.288 26.039,-0.468 26.806,0.972 C27.572,2.413 26.041,4.929 23.387,6.593 C23.143,6.745 22.899,6.872 22.655,7.000 C22.655,7.000 28.000,7.000 28.000,7.000 C29.105,7.000 30.000,7.895 30.000,9.000 C30.000,9.000 30.000,12.000 30.000,12.000 C30.000,13.104 29.105,14.000 28.000,14.000 ZM2.000,14.000 C0.895,14.000 -0.000,13.104 -0.000,12.000 C-0.000,12.000 -0.000,9.000 -0.000,9.000 C-0.000,7.895 0.895,7.000 2.000,7.000 C2.000,7.000 7.345,7.000 7.345,7.000 C7.101,6.872 6.856,6.745 6.613,6.593 C3.959,4.929 2.428,2.413 3.194,0.972 C3.960,-0.468 6.733,-0.288 9.387,1.376 C12.013,3.022 13.531,5.499 12.821,6.946 C13.112,6.245 11.992,4.836 10.260,3.751 C8.489,2.640 6.758,2.295 6.395,2.978 C6.031,3.662 7.172,5.115 8.944,6.226 C9.475,6.559 9.996,6.813 10.483,7.000 C10.483,7.000 13.000,7.000 13.000,7.000 C13.000,7.000 13.000,14.000 13.000,14.000 C13.000,14.000 2.000,14.000 2.000,14.000 ZM15.000,5.000 C16.105,5.000 17.000,5.895 17.000,7.000 C17.000,7.000 13.000,7.000 13.000,7.000 C13.000,5.895 13.895,5.000 15.000,5.000 ZM4.000,15.000 C4.000,15.000 13.000,15.000 13.000,15.000 C13.000,15.000 13.000,30.000 13.000,30.000 C13.000,30.000 4.000,30.000 4.000,30.000 C2.895,30.000 2.000,29.104 2.000,28.000 C2.000,28.000 2.000,17.000 2.000,17.000 C2.000,15.895 2.895,15.000 4.000,15.000 ZM26.000,15.000 C27.105,15.000 28.000,15.895 28.000,17.000 C28.000,17.000 28.000,28.000 28.000,28.000 C28.000,29.104 27.105,30.000 26.000,30.000 C26.000,30.000 17.000,30.000 17.000,30.000 C17.000,30.000 17.000,15.000 17.000,15.000 C17.000,15.000 26.000,15.000 26.000,15.000 Z" id="path-1" class="cls-2" fill-rule="evenodd"/>
</svg>
