<svg xmlns="http://www.w3.org/2000/svg" xmlns:xlink="http://www.w3.org/1999/xlink" preserveAspectRatio="xMidYMid" width="50" height="50" viewBox="0 0 50 50">
  <defs>
    <style>

      .cls-2 {
        fill: #e2e2e2;
      }
    </style>
  </defs>
  <path d="M25.000,49.993 C11.197,49.993 0.007,38.803 0.007,25.000 C0.007,11.197 11.197,0.007 25.000,0.007 C38.803,0.007 49.993,11.197 49.993,25.000 C49.993,38.803 38.803,49.993 25.000,49.993 ZM25.000,2.766 C12.720,2.766 2.766,12.720 2.766,25.000 C2.766,37.280 12.720,47.234 25.000,47.234 C37.280,47.234 47.234,37.280 47.234,25.000 C47.234,12.720 37.280,2.766 25.000,2.766 ZM35.685,20.923 C35.685,20.923 29.078,14.315 29.078,14.315 C29.078,14.315 30.092,13.289 30.092,13.289 C30.994,12.387 32.465,12.394 33.377,13.307 C33.377,13.307 36.682,16.610 36.682,16.610 C37.594,17.523 37.602,18.994 36.699,19.896 C36.699,19.896 35.685,20.923 35.685,20.923 ZM33.291,23.604 C33.291,23.604 26.396,16.709 26.396,16.709 C26.396,16.709 28.974,14.231 28.974,14.231 C28.974,14.231 35.868,21.125 35.868,21.125 C35.868,21.125 33.291,23.604 33.291,23.604 ZM18.397,31.566 C18.397,31.566 16.800,31.207 16.800,31.207 C16.800,31.207 27.795,20.221 27.795,20.221 C27.795,20.221 29.621,22.049 29.621,22.049 C29.621,22.049 18.627,33.033 18.627,33.033 C18.627,33.033 18.397,31.566 18.397,31.566 ZM15.696,30.117 C15.696,30.117 19.814,34.235 19.814,34.235 C19.814,34.235 30.827,23.232 30.827,23.232 C30.827,23.232 32.294,24.699 32.294,24.699 C32.294,24.699 21.171,35.725 21.171,35.725 C21.171,35.725 20.460,35.014 20.460,35.014 C20.460,35.014 16.238,36.253 16.238,36.253 C16.238,36.253 16.467,36.481 16.467,36.481 C16.467,36.481 13.536,37.342 13.536,37.342 C13.471,37.361 13.403,37.371 13.336,37.371 C13.188,37.371 13.048,37.312 12.927,37.224 C12.927,37.224 12.713,37.287 12.713,37.287 C12.713,37.287 12.779,37.063 12.779,37.063 C12.656,36.888 12.597,36.674 12.658,36.464 C12.658,36.464 13.519,33.533 13.519,33.533 C13.519,33.533 13.747,33.762 13.747,33.762 C13.747,33.762 14.987,29.539 14.987,29.539 C14.987,29.539 14.277,28.829 14.277,28.829 C14.277,28.829 25.399,17.805 25.399,17.805 C25.399,17.805 26.710,19.114 26.710,19.114 C26.710,19.114 15.696,30.117 15.696,30.117 Z" id="path-1" class="cls-2" fill-rule="evenodd"/>
</svg>
