<svg xmlns="http://www.w3.org/2000/svg" xmlns:xlink="http://www.w3.org/1999/xlink" preserveAspectRatio="xMidYMid" width="26" height="26" viewBox="0 0 26 26">
  <defs>
    <style>

      .cls-2 {
        fill: #999999;
        filter: url(#inner-shadow-1);
      }
    </style>

    <filter id="inner-shadow-1" filterUnits="userSpaceOnUse">
      <feOffset in="SourceAlpha" dx="0" dy="1"/>
      <feGaussianBlur result="innerShadowBlur" stdDeviation="1"/>
      <feFlood flood-color="#000000" flood-opacity="0.1"/>
      <feComposite operator="out" in2="innerShadowBlur"/>
      <feComposite operator="in" in2="SourceAlpha"/>
      <feBlend mode="normal" in2="SourceGraphic" result="innerShadow"/>
    </filter>
  </defs>
  <path d="M12.812,25.625 C5.736,25.625 -0.000,19.889 -0.000,12.812 C-0.000,5.736 5.736,-0.000 12.812,-0.000 C19.889,-0.000 25.625,5.736 25.625,12.812 C25.625,19.889 19.889,25.625 12.812,25.625 ZM10.988,20.312 C10.988,20.312 13.975,20.312 13.975,20.312 C13.975,20.312 13.975,17.772 13.975,17.772 C13.975,17.772 10.988,17.772 10.988,17.772 C10.988,17.772 10.988,20.312 10.988,20.312 ZM16.317,6.461 C15.453,5.692 14.263,5.308 12.746,5.308 C11.337,5.308 10.194,5.653 9.317,6.344 C8.440,7.035 8.012,8.030 8.032,9.330 C8.032,9.330 8.053,9.391 8.053,9.391 C8.053,9.391 10.938,9.391 10.938,9.391 C10.944,8.816 11.122,8.379 11.471,8.081 C11.820,7.783 12.245,7.634 12.746,7.634 C13.355,7.634 13.824,7.810 14.153,8.162 C14.481,8.514 14.646,9.002 14.646,9.625 C14.646,10.187 14.502,10.695 14.214,11.149 C13.926,11.603 13.542,12.026 13.061,12.419 C12.241,13.048 11.695,13.584 11.420,14.024 C11.146,14.464 11.005,15.158 10.999,16.106 C10.999,16.106 13.955,16.106 13.955,16.106 C13.955,15.544 14.019,15.102 14.148,14.780 C14.276,14.459 14.547,14.139 14.960,13.820 C15.719,13.326 16.350,12.713 16.855,11.982 C17.360,11.250 17.612,10.455 17.612,9.595 C17.612,8.274 17.180,7.229 16.317,6.461 Z" id="path-1" class="cls-2" fill-rule="evenodd"/>
</svg>
