<svg xmlns="http://www.w3.org/2000/svg" xmlns:xlink="http://www.w3.org/1999/xlink" preserveAspectRatio="xMidYMid" width="21" height="18" viewBox="0 0 21 18">
  <defs>
    <style>

      .cls-2 {
        fill: #7fc345;
      }
    </style>
  </defs>
  <path d="M19.865,2.731 C19.865,2.731 9.243,17.297 9.243,17.297 C8.925,17.733 8.426,18.022 7.933,18.022 C7.439,18.022 6.890,17.771 6.541,17.448 C6.541,17.448 0.308,11.649 0.308,11.649 C-0.117,11.253 -0.117,10.611 0.308,10.217 C0.308,10.217 1.847,8.782 1.847,8.782 C2.272,8.390 2.963,8.390 3.386,8.782 C3.386,8.782 7.441,12.553 7.441,12.553 C7.441,12.553 16.260,0.456 16.260,0.456 C16.595,-0.004 17.276,-0.124 17.773,0.188 C17.773,0.188 19.575,1.325 19.575,1.325 C20.070,1.638 20.200,2.270 19.865,2.731 Z" id="path-1" class="cls-2" fill-rule="evenodd"/>
</svg>
