<svg xmlns="http://www.w3.org/2000/svg" xmlns:xlink="http://www.w3.org/1999/xlink" preserveAspectRatio="xMidYMid" width="26" height="6" viewBox="0 0 26 6">
  <defs>
    <style>

      .cls-2 {
        fill: #7fc345;
      }
    </style>
  </defs>
  <path d="M20.000,5.999 C20.000,5.999 20.000,-0.001 20.000,-0.001 C20.000,-0.001 26.000,-0.001 26.000,-0.001 C26.000,-0.001 26.000,5.999 26.000,5.999 C26.000,5.999 20.000,5.999 20.000,5.999 ZM10.000,-0.001 C10.000,-0.001 16.000,-0.001 16.000,-0.001 C16.000,-0.001 16.000,5.999 16.000,5.999 C16.000,5.999 10.000,5.999 10.000,5.999 C10.000,5.999 10.000,-0.001 10.000,-0.001 ZM-0.000,-0.001 C-0.000,-0.001 6.000,-0.001 6.000,-0.001 C6.000,-0.001 6.000,5.999 6.000,5.999 C6.000,5.999 -0.000,5.999 -0.000,5.999 C-0.000,5.999 -0.000,-0.001 -0.000,-0.001 Z" id="path-1" class="cls-2" fill-rule="evenodd"/>
</svg>
