<svg xmlns="http://www.w3.org/2000/svg" xmlns:xlink="http://www.w3.org/1999/xlink" preserveAspectRatio="xMidYMid" width="23" height="23" viewBox="0 0 23 23">
  <defs>
    <style>

      .cls-2 {
        fill: #cc3333;
      }
    </style>
  </defs>
  <path d="M22.408,15.684 C22.408,15.684 22.363,15.781 22.363,15.781 C22.327,15.909 22.266,16.062 22.159,16.214 C22.159,16.214 22.127,16.284 22.127,16.284 C22.127,16.284 22.111,16.279 22.111,16.279 C21.835,16.630 21.306,16.960 20.292,16.960 C18.887,16.960 16.858,16.373 15.062,15.453 C12.407,15.742 9.541,16.346 7.443,17.059 C5.179,20.906 3.488,22.626 1.976,22.626 C1.670,22.626 1.243,22.591 0.745,22.297 C0.247,22.003 0.048,21.474 0.048,21.474 C-0.021,21.254 -0.047,20.972 0.024,20.618 C0.254,19.472 1.490,17.721 4.269,16.243 C4.269,16.243 4.924,15.895 4.924,15.895 C4.924,15.895 5.047,15.833 5.047,15.833 C5.566,14.925 6.075,13.962 6.733,12.638 C7.616,10.860 8.315,9.114 8.813,7.443 C8.136,5.119 7.961,2.783 8.358,1.299 C8.573,0.496 9.149,-0.002 9.862,-0.002 C9.862,-0.002 10.326,0.001 10.326,0.001 C10.958,0.001 11.335,0.294 11.539,0.541 C11.912,0.992 12.013,1.741 12.048,2.694 C12.084,3.648 11.758,5.829 11.525,7.254 C12.228,9.278 13.218,10.886 14.326,11.795 C14.762,12.143 15.261,12.483 15.805,12.805 C16.633,12.718 17.405,12.674 18.104,12.674 C20.392,12.674 21.778,13.103 22.339,13.987 C22.660,14.493 22.685,15.095 22.408,15.684 ZM1.680,20.889 C2.671,21.938 5.511,17.106 5.511,17.106 C5.511,17.106 0.689,19.840 1.680,20.889 ZM10.046,1.336 C8.603,1.336 10.165,6.720 10.165,6.720 C10.165,6.720 11.489,1.336 10.046,1.336 ZM13.043,13.168 C11.871,12.159 10.946,10.712 10.273,9.149 C9.894,10.440 9.312,11.902 8.407,13.646 C8.010,14.409 7.627,15.118 7.257,15.776 C9.468,14.861 11.832,14.235 13.960,13.870 C13.638,13.649 13.330,13.415 13.043,13.168 ZM15.707,14.218 C15.707,14.218 20.789,16.433 21.033,15.010 C21.276,13.588 15.707,14.218 15.707,14.218 Z" id="path-1" class="cls-2" fill-rule="evenodd"/>
</svg>
