<svg xmlns="http://www.w3.org/2000/svg" xmlns:xlink="http://www.w3.org/1999/xlink" preserveAspectRatio="xMidYMid" width="13" height="20" viewBox="0 0 13 20">
  <defs>
    <style>

      .cls-2 {
        fill: #ebf1f4;
      }
    </style>
  </defs>
  <path d="M11.609,10.475 C11.609,10.475 6.492,19.471 6.492,19.471 C6.492,19.471 1.374,10.475 1.374,10.475 C0.516,9.375 -0.000,7.995 -0.000,6.491 C-0.000,2.906 2.906,-0.000 6.492,-0.000 C10.077,-0.000 12.983,2.906 12.983,6.491 C12.983,7.995 12.467,9.375 11.609,10.475 ZM6.492,3.894 C5.057,3.894 3.895,5.057 3.895,6.491 C3.895,7.925 5.057,9.088 6.492,9.088 C7.926,9.088 9.088,7.925 9.088,6.491 C9.088,5.057 7.926,3.894 6.492,3.894 Z" id="path-1" class="cls-2" fill-rule="evenodd"/>
</svg>
