<svg xmlns="http://www.w3.org/2000/svg" xmlns:xlink="http://www.w3.org/1999/xlink" preserveAspectRatio="xMidYMid" width="26" height="26" viewBox="0 0 26 26">
  <defs>
    <style>

      .cls-2 {
        fill: #cc9999;
        filter: url(#inner-shadow-1);
      }
    </style>

    <filter id="inner-shadow-1" filterUnits="userSpaceOnUse">
      <feOffset in="SourceAlpha" dx="0" dy="1"/>
      <feGaussianBlur result="innerShadowBlur" stdDeviation="1"/>
      <feFlood flood-color="#000000" flood-opacity="0.3"/>
      <feComposite operator="out" in2="innerShadowBlur"/>
      <feComposite operator="in" in2="SourceAlpha"/>
      <feBlend mode="normal" in2="SourceGraphic" result="innerShadow"/>
    </filter>
  </defs>
  <path d="M12.812,-0.000 C5.736,-0.000 -0.000,5.736 -0.000,12.812 C-0.000,19.888 5.736,25.625 12.812,25.625 C19.889,25.625 25.625,19.888 25.625,12.812 C25.625,5.736 19.889,-0.000 12.812,-0.000 ZM18.593,17.206 C18.593,17.206 17.205,18.592 17.205,18.592 C16.951,18.847 16.535,18.847 16.281,18.592 C16.281,18.592 12.812,15.126 12.812,15.126 C12.812,15.126 9.346,18.592 9.346,18.592 C9.091,18.847 8.676,18.847 8.421,18.591 C8.421,18.591 7.032,17.206 7.032,17.206 C6.779,16.950 6.779,16.537 7.032,16.280 C7.032,16.280 10.500,12.813 10.500,12.813 C10.500,12.813 7.033,9.346 7.033,9.346 C6.779,9.090 6.779,8.674 7.033,8.422 C7.033,8.422 8.421,7.034 8.421,7.034 C8.676,6.777 9.092,6.777 9.346,7.034 C9.346,7.034 12.812,10.502 12.812,10.502 C12.812,10.502 16.280,7.034 16.280,7.034 C16.535,6.777 16.951,6.777 17.204,7.034 C17.204,7.034 18.592,8.420 18.592,8.420 C18.846,8.674 18.846,9.090 18.593,9.346 C18.593,9.346 15.125,12.813 15.125,12.813 C15.125,12.813 18.593,16.280 18.593,16.280 C18.846,16.537 18.846,16.950 18.593,17.206 Z" id="path-1" class="cls-2" fill-rule="evenodd"/>
</svg>
